<svg id="Lag_1" data-name="Lag 1" xmlns="http://www.w3.org/2000/svg" viewBox="0 0 440 423"><defs><style>.cls-1,.cls-4{fill:#fff;}.cls-2,.cls-3{fill:#decc59;}.cls-3{stroke:#decc00;stroke-miterlimit:10;}.cls-4{font-size:313.71px;font-family:MyriadPro-Regular, Myriad Pro;}.cls-5{fill:#decc00;}</style></defs><path class="cls-1" d="M708.94,700.67c-58.63,0-113.75-21.95-155.21-61.81S489.44,546,489.44,489.67s22.83-109.34,64.29-149.2,96.58-61.8,155.21-61.8,113.76,21.95,155.22,61.8,64.28,92.84,64.28,149.2S905.61,599,864.16,638.86,767.58,700.67,708.94,700.67Z" transform="translate(-488.94 -278.17)"/><path class="cls-2" d="M708.94,279.17a225.23,225.23,0,0,1,85.26,16.54,219.1,219.1,0,0,1,69.61,45.12,209.73,209.73,0,0,1,46.93,66.91,203.71,203.71,0,0,1,0,163.85,209.62,209.62,0,0,1-46.93,66.91,218.93,218.93,0,0,1-69.61,45.12,227.86,227.86,0,0,1-170.51,0,219.09,219.09,0,0,1-69.62-45.12,209.59,209.59,0,0,1-46.92-66.91,203.6,203.6,0,0,1,0-163.85,209.7,209.7,0,0,1,46.92-66.91,219.26,219.26,0,0,1,69.62-45.12,225.18,225.18,0,0,1,85.25-16.54m0-1c-121.5,0-220,94.69-220,211.5s98.5,211.5,220,211.5,220-94.7,220-211.5-98.49-211.5-220-211.5Z" transform="translate(-488.94 -278.17)"/><text x="-488.94" y="-278.17"/><circle class="cls-3" cx="219" cy="215" r="129"/><text x="-488.94" y="-278.17"/><text class="cls-4" transform="translate(164 343.57) scale(1.17 1)">f</text><path class="cls-5" d="M694.07,623.1a1.5,1.5,0,0,0,0-3,1.5,1.5,0,0,0,0,3Z" transform="translate(-488.94 -278.17)"/><path class="cls-1" d="M693.69,623.29a1.5,1.5,0,0,0,0-3,1.5,1.5,0,0,0,0,3Z" transform="translate(-488.94 -278.17)"/><path class="cls-1" d="M693,621.07l1,2.89c.46,1.27,2.58,1.57,2.89,0l.21-1.06.07-.35c.16-.44.1-.47-.19-.11l-.76.2c-.16-.16-.13-.13.09.1a4.48,4.48,0,0,0,.4.36,2.85,2.85,0,0,0,1.13.59,1.52,1.52,0,0,0,1.85-1.05l-.41.54-.76.21c.34,0-.3-.2.27.21a1.86,1.86,0,0,0,.6.29,2.11,2.11,0,0,0,1.7-.17,3.05,3.05,0,0,0,1.27-2.57l-2.26,1.3a4.43,4.43,0,0,1,1.43,1.22,1.54,1.54,0,0,0,2.05.54,1.89,1.89,0,0,0,.89-1.09,2.61,2.61,0,0,0,.08-.56c0-.75,0,0-.54.38l-1.15.15c-.21-.18-.23-.18-.07,0l.33.37.64.74a1.51,1.51,0,0,0,2.56-1.06c0-.1,0-.2,0-.3.22-.55-.17-.57-1.16,0a1.5,1.5,0,0,0,.26.43,3.13,3.13,0,0,0,1.51,1.25c1,.41,1.83-.6,1.9-1.45l0-.61-1.5,1.5h.16l-.76-.2c-.2-.24-.22-.25,0,0l.24.31a2.2,2.2,0,0,0,.6.45,1.9,1.9,0,0,0,1.78,0,2.25,2.25,0,0,0,1-1.28,2,2,0,0,0,.14-.85c-.11-.4.21-.21-.27,0l-.76.2.19,0-.76-.2a13.22,13.22,0,0,1,1.79,1.85,1.52,1.52,0,0,0,2.51-.66l.27-.84.11-.33c.12-.28,0-.25-.25.08l-1.16.15c-.45-.74-.68-.88-.69-.4a1,1,0,0,0,0,.52,1.5,1.5,0,0,0,3,0,11.85,11.85,0,0,1,.4-2.58l-2.89-.8a10.68,10.68,0,0,0,.8,6.11,1.52,1.52,0,0,0,2.05.54,1.55,1.55,0,0,0,.54-2.06,7,7,0,0,1-.5-3.79c.28-1.86-2.38-2.72-2.89-.8a15.52,15.52,0,0,0-.51,3.38h3c-.08-.69.16-1.3-.19-2a2,2,0,0,0-1.53-1.07c-1.74-.18-2.06,1.81-2.46,3.06l2.51-.66c-.89-.92-2.07-2.75-3.54-2.52a2,2,0,0,0-1.48,1.11,2.62,2.62,0,0,0-.25.81,1.92,1.92,0,0,0,0,.63c0,.38,0,.31.29-.2l.75-.21h-.19l.76.21c-.06,0-.36-.42-.5-.53a1.91,1.91,0,0,0-1.2-.4,1.54,1.54,0,0,0-1.5,1.5l0,.61,1.9-1.45c.35.3.42.32.23.05l-.21-.34a4,4,0,0,0-.47-.61,2.18,2.18,0,0,0-1.92-.65c-1.5.23-2,1.77-2,3.11l2.56-1.06c-.76-.88-1.65-2.24-3-1.87a1.84,1.84,0,0,0-1.09.9,2.05,2.05,0,0,0-.23.92c0,.76-.08,0,.53-.39l2,.54a8.12,8.12,0,0,0-2.5-2.31,1.52,1.52,0,0,0-2.26,1.3c0,.54-.22,0,.29-.09h.8c-.31-.07-.63-.43-1-.55a2.28,2.28,0,0,0-1-.12,1.84,1.84,0,0,0-1.73,1.45l1.85-1.05c-.34-.09-.77-.71-1.16-.9a2.29,2.29,0,0,0-1.83-.12c-1.36.54-1.4,2.16-1.65,3.39h2.89l-1-2.89c-.65-1.8-3.55-1-2.89.8Z" transform="translate(-488.94 -278.17)"/><path class="cls-1" d="M713.71,623.85a1.5,1.5,0,0,0,0-3,1.5,1.5,0,0,0,0,3Z" transform="translate(-488.94 -278.17)"/><path class="cls-1" d="M713.71,623a1.5,1.5,0,0,0,0-3,1.5,1.5,0,0,0,0,3Z" transform="translate(-488.94 -278.17)"/><path class="cls-1" d="M713.71,623.71a1.5,1.5,0,0,0,0-3,1.5,1.5,0,0,0,0,3Z" transform="translate(-488.94 -278.17)"/><path class="cls-1" d="M713.76,623.57a1.5,1.5,0,0,0,0-3,1.5,1.5,0,0,0,0,3Z" transform="translate(-488.94 -278.17)"/><path class="cls-1" d="M714.55,625.31a1.5,1.5,0,0,0,0-3,1.5,1.5,0,0,0,0,3Z" transform="translate(-488.94 -278.17)"/></svg>