<svg id="Lag_1" data-name="Lag 1" xmlns="http://www.w3.org/2000/svg" viewBox="0 0 159.78 131.27"><defs><style>.cls-1{fill:#fff;}.cls-2{fill:#dbbc60;}</style></defs><path class="cls-1" d="M462.43,377.51c-8.31-3.62-7.87-27.51-7.75-33.89a80.08,80.08,0,0,1,2.12-16.78,82.24,82.24,0,0,1,21.07-38.57c7.08-7.08,18-18,26.81-14.94,9.71,3.42,11,22,11.26,25.46C518.89,340.6,475.71,383.3,462.43,377.51Z" transform="translate(-454.63 -272.79)"/><path class="cls-2" d="M462.43,377.51c-8.31-3.62-7.87-27.51-7.75-33.89a80.08,80.08,0,0,1,2.12-16.78,82.24,82.24,0,0,1,21.07-38.57c7.08-7.08,18-18,26.81-14.94,9.71,3.42,11,22,11.26,25.46C518.89,340.6,475.71,383.3,462.43,377.51Z" transform="translate(-454.63 -272.79)"/><path class="cls-1" d="M474.73,380.07c16.94-18.85,42.68-23.81,42.68-23.81,12.83-2.48,43.09-5.64,48.89,5.48,3.44,6.59-3.24,15.31-7.18,20.45-8.85,11.55-24.53,20.75-42.93,21.78-20.29,1.13-44.11-7.66-44.85-17C471.14,384.45,472.61,382.42,474.73,380.07Z" transform="translate(-454.63 -272.79)"/><path class="cls-2" d="M474.73,380.07c16.94-18.85,42.68-23.81,42.68-23.81,12.83-2.48,43.09-5.64,48.89,5.48,3.44,6.59-3.24,15.31-7.18,20.45-8.85,11.55-24.53,20.75-42.93,21.78-20.29,1.13-44.11-7.66-44.85-17C471.14,384.45,472.61,382.42,474.73,380.07Z" transform="translate(-454.63 -272.79)"/><path class="cls-2" d="M524,342.41a5.66,5.66,0,0,1-2.47-.48,3.59,3.59,0,0,1-1.51-1.26,3.08,3.08,0,0,1-.5-1.68v-6.78a.37.37,0,0,0-.1-.28.55.55,0,0,0-.24-.13l-1.15-.39v-.58h5.12v.58l-1.15.39a.59.59,0,0,0-.23.13.41.41,0,0,0-.1.28v6.06a4.52,4.52,0,0,0,.11.93,2.81,2.81,0,0,0,.39.95,2.23,2.23,0,0,0,.82.72,3.78,3.78,0,0,0,2.83,0,2.45,2.45,0,0,0,.88-.73,2.83,2.83,0,0,0,.46-.94,3.86,3.86,0,0,0,.13-.93v-6a.33.33,0,0,0-.1-.26.59.59,0,0,0-.23-.14l-1.15-.44v-.58H530v.58l-1.16.44a.59.59,0,0,0-.23.14.39.39,0,0,0-.09.26v6.4a3.28,3.28,0,0,1-.44,1.74,3.58,3.58,0,0,1-1.13,1.16,5.23,5.23,0,0,1-1.47.66A5.33,5.33,0,0,1,524,342.41Z" transform="translate(-454.63 -272.79)"/><path class="cls-2" d="M531,342.15v-.58l1.15-.39a.42.42,0,0,0,.24-.14.41.41,0,0,0,.09-.28v-8.55a.41.41,0,0,0-.09-.28.47.47,0,0,0-.24-.13l-1.15-.39v-.58h5a7.4,7.4,0,0,1,2.13.25,3.4,3.4,0,0,1,1.29.67,2.3,2.3,0,0,1,.63.92,3,3,0,0,1,.18,1,2.85,2.85,0,0,1-.39,1.53,3.33,3.33,0,0,1-1,1,3.85,3.85,0,0,1-1.15.54l-1.48.68-1.76-.42.08-.86a1.43,1.43,0,0,0,.3.05l.52,0h.42a2.11,2.11,0,0,0,1.22-.32,1.92,1.92,0,0,0,.7-.82,2.51,2.51,0,0,0,.24-1.08,2.09,2.09,0,0,0-.6-1.66,2.52,2.52,0,0,0-1.71-.52h-1v8.89a.44.44,0,0,0,.09.29.41.41,0,0,0,.24.13l1.23.39v.58Zm11.52,0h-2.43a2.29,2.29,0,0,1-.79-.1,1,1,0,0,1-.45-.34c-.12-.15-.27-.35-.45-.61l-2.61-3.86,2-.61,2.87,4a2,2,0,0,0,.32.35,1.21,1.21,0,0,0,.39.24l1.14.32Z" transform="translate(-454.63 -272.79)"/><path class="cls-2" d="M544.76,342.15v-.58l1.26-.38a.47.47,0,0,0,.25-.14.42.42,0,0,0,.08-.28v-8.9h-2.44a.31.31,0,0,0-.22.08.4.4,0,0,0-.12.22l-.49,1.73h-.82v-3.07h10.36v3.07h-.83l-.48-1.73a.36.36,0,0,0-.12-.22.32.32,0,0,0-.21-.08h-2.47v8.9a.38.38,0,0,0,.11.28.55.55,0,0,0,.23.14l1.27.38v.58Z" transform="translate(-454.63 -272.79)"/><path class="cls-2" d="M553.64,342.15v-.58l1.15-.39A.42.42,0,0,0,555,341a.41.41,0,0,0,.09-.28v-8.55a.41.41,0,0,0-.09-.28.41.41,0,0,0-.24-.13l-1.15-.39v-.58h9.19v3H562l-.47-1.63a.53.53,0,0,0-.12-.21.32.32,0,0,0-.22-.07h-3.9v3.86h2.32a.33.33,0,0,0,.24-.07.68.68,0,0,0,.11-.21l.42-1.28h.71v4.14h-.71l-.42-1.26a.51.51,0,0,0-.11-.22.33.33,0,0,0-.24-.08h-2.32v4.33h4.55A.32.32,0,0,0,562,341a.55.55,0,0,0,.12-.21l.47-1.82h.83v3.16Z" transform="translate(-454.63 -272.79)"/><path class="cls-2" d="M564.78,342.15v-.58l1.16-.39a.42.42,0,0,0,.24-.14.41.41,0,0,0,.09-.28v-8.55a.4.4,0,0,0-.33-.41l-1.16-.39v-.58h5.13v.58l-1.15.39a.47.47,0,0,0-.24.13.37.37,0,0,0-.1.28v4.44l4.41-4.82-.88-.42v-.58h3.86v.58l-1.17.4a1.51,1.51,0,0,0-.36.18,1.54,1.54,0,0,0-.35.29l-3.15,3.26,3.87,5.16a2.11,2.11,0,0,0,.29.34.9.9,0,0,0,.33.23l1,.31v.57h-4.66v-.57l.85-.33-3.21-4.36-.85.61v3.26a.39.39,0,0,0,.1.29.41.41,0,0,0,.24.13l1.14.39v.58Z" transform="translate(-454.63 -272.79)"/><path class="cls-2" d="M576.8,342.15v-.58l1.15-.39a.42.42,0,0,0,.24-.14.41.41,0,0,0,.09-.28v-8.55a.41.41,0,0,0-.09-.28.47.47,0,0,0-.24-.13l-1.15-.39v-.58h5.05a7.4,7.4,0,0,1,2.13.25,3.28,3.28,0,0,1,1.28.67,2.23,2.23,0,0,1,.64.92,3,3,0,0,1,.18,1,2.85,2.85,0,0,1-.39,1.53,3.33,3.33,0,0,1-1,1,3.85,3.85,0,0,1-1.15.54l-1.49.68-1.75-.42.08-.86a1.43,1.43,0,0,0,.3.05l.51,0h.42a2.07,2.07,0,0,0,1.22-.32,1.88,1.88,0,0,0,.71-.82,2.5,2.5,0,0,0,.23-1.08,2.09,2.09,0,0,0-.59-1.66,2.52,2.52,0,0,0-1.71-.52h-1.05v8.89a.44.44,0,0,0,.09.29.41.41,0,0,0,.24.13l1.22.39v.58Zm11.52,0h-2.43a2.29,2.29,0,0,1-.79-.1,1,1,0,0,1-.45-.34c-.12-.15-.27-.35-.45-.61l-2.62-3.86,2-.61,2.87,4a2,2,0,0,0,.32.35,1,1,0,0,0,.39.24l1.14.32Z" transform="translate(-454.63 -272.79)"/><path class="cls-2" d="M587.67,342.15v-.58l.78-.32a.81.81,0,0,0,.43-.46l3.22-8.24,1-1.89h1.23l3.94,10.15a1.34,1.34,0,0,0,.17.27.53.53,0,0,0,.25.18l.8.31v.58h-4.69v-.58l1.36-.42-2.71-6.9-.33-1.08H593l-3,7.95,1.36.45v.58Zm3.25-3.86.41-1.07h3.38l.41,1.07Z" transform="translate(-454.63 -272.79)"/><path class="cls-2" d="M599.85,342.15v-.58l1.15-.44a.49.49,0,0,0,.24-.15.4.4,0,0,0,.09-.27v-8.5a.37.37,0,0,0-.1-.28.41.41,0,0,0-.23-.13l-1.15-.39v-.58h4.38l2.41,6.82.46,1.48h.09l2.89-8.3h4.33v.58l-1.15.39a.56.56,0,0,0-.24.13.38.38,0,0,0-.11.28v8.55a.4.4,0,0,0,.1.28.48.48,0,0,0,.25.14l1.15.39v.58H609.3v-.58l1.13-.39a.48.48,0,0,0,.25-.14.41.41,0,0,0,.1-.28v-8.49h-.1l-.42,1.26-2.42,6.83-.78,1.79h-1l-3-8.61-.42-1.29h-.09v8.46a.4.4,0,0,0,.1.28.59.59,0,0,0,.23.14l1.15.44v.58Z" transform="translate(-454.63 -272.79)"/></svg>